<svg xmlns="http://www.w3.org/2000/svg" xmlns:xlink="http://www.w3.org/1999/xlink" width="500" zoomAndPan="magnify" viewBox="0 0 375 374.999991" height="500" preserveAspectRatio="xMidYMid meet" version="1.0"><defs><g/><clipPath id="7996040911"><path d="M 8.777344 68.6875 L 283.867188 68.6875 L 283.867188 239.300781 L 8.777344 239.300781 Z M 8.777344 68.6875 " clip-rule="nonzero"/></clipPath><clipPath id="4731b90156"><path d="M 8.566406 68.6875 L 286.851562 68.6875 L 286.851562 239.300781 L 8.566406 239.300781 Z M 8.566406 68.6875 " clip-rule="nonzero"/></clipPath><clipPath id="b8e575de39"><path d="M 202.257812 88.738281 L 366.269531 88.738281 L 366.269531 221.195312 L 202.257812 221.195312 Z M 202.257812 88.738281 " clip-rule="nonzero"/></clipPath></defs><g clip-path="url(#7996040911)"><path fill="#bf6262" d="M 78.851562 112.210938 C 78.851562 112.210938 106.078125 93.003906 121.191406 112.226562 C 121.191406 112.226562 109.476562 184.878906 8.882812 170.652344 C 8.882812 170.652344 47.507812 206.785156 85.011719 206.019531 C 85.011719 206.019531 83.15625 212.742188 64.84375 216.554688 C 64.84375 216.554688 98.445312 238.316406 124.753906 226.015625 C 124.753906 226.015625 116.078125 234.800781 95.578125 239.191406 C 95.578125 239.191406 266.378906 239.109375 283.734375 239.109375 C 268.867188 236.894531 153.96875 214.175781 153.96875 214.175781 C 165.007812 208 169.019531 201.507812 169.019531 201.507812 C 155.488281 213.164062 134.597656 207.085938 134.597656 207.085938 C 144.476562 201.632812 144.867188 197.539062 144.867188 197.539062 C 123.964844 204.769531 98.886719 191.5625 98.886719 191.5625 C 156.519531 181.273438 156.085938 138.515625 156.085938 138.515625 C 145.789062 130.503906 132.40625 146.1875 132.40625 146.1875 C 162.746094 88.929688 186.304688 107.667969 195.167969 119.023438 C 198.371094 123.125 200.867188 127.371094 202.824219 131.636719 C 200.902344 121.746094 197.78125 111.359375 193.042969 100.679688 C 180.878906 73.265625 128.761719 40.332031 78.851562 112.210938 " fill-opacity="1" fill-rule="nonzero"/></g><g clip-path="url(#4731b90156)"><path stroke-linecap="butt" transform="matrix(0.0213082, 0, 0, -0.0213297, 8.564883, 239.300535)" fill="none" stroke-linejoin="miter" d="M 3298.573102 5958.346982 C 3298.573102 5958.346982 4576.32313 6858.831038 5285.593554 5957.614434 C 5285.593554 5957.614434 4735.812732 2551.451539 14.920519 3218.436068 C 14.920519 3218.436068 1827.602338 1524.419896 3587.67092 1560.314725 C 3587.67092 1560.314725 3500.593264 1245.136149 2641.182629 1066.39455 C 2641.182629 1066.39455 4218.113151 46.138972 5452.782654 622.837019 C 5452.782654 622.837019 5045.625866 210.962168 4083.555257 5.116311 C 4083.555257 5.116311 12099.282656 8.962185 12913.779554 8.962185 C 12216.058376 112.800798 6823.843265 1177.924912 6823.843265 1177.924912 C 7341.909489 1467.464325 7530.180548 1771.837826 7530.180548 1771.837826 C 6895.155283 1225.357365 5914.752535 1510.318356 5914.752535 1510.318356 C 6378.372309 1765.977445 6396.704447 1957.904899 6396.704447 1957.904899 C 5415.751735 1618.918528 4238.828467 2238.104331 4238.828467 2238.104331 C 6943.552127 2720.486882 6923.203454 4725.103209 6923.203454 4725.103209 C 6439.968293 5100.716957 5811.90924 4365.422369 5811.90924 4365.422369 C 7235.766409 7049.842808 8341.37766 6171.335177 8757.333874 5638.956257 C 8907.657407 5446.66253 9024.79977 5247.592737 9116.643782 5047.60726 C 9026.449662 5511.309849 8879.975878 5998.270823 8657.607043 6498.967062 C 8086.744261 7784.22171 5640.870392 9328.248775 3298.573102 5958.346982 Z M 3298.573102 5958.346982 " stroke="#ec1d27" stroke-width="10" stroke-opacity="1" stroke-miterlimit="10"/></g><path fill="#122949" d="M 277.035156 202.007812 C 268.582031 195.925781 259.734375 191.492188 250.261719 187.191406 C 247.53125 185.957031 244.742188 184.734375 241.90625 183.480469 C 240.835938 183.011719 239.765625 182.542969 238.683594 182.0625 C 233.746094 179.871094 228.660156 177.582031 223.398438 175.003906 C 209.585938 168.25 199.597656 159.714844 194.675781 155.007812 C 194.675781 155.074219 194.675781 155.136719 194.6875 155.1875 C 194.6875 155.1875 186.5625 170.246094 185.039062 176.984375 C 184.785156 178.039062 184.722656 178.898438 184.863281 179.449219 C 185.9375 183.507812 202.125 192.367188 204.683594 194.039062 C 212.421875 199.105469 232.871094 198 263.933594 220.917969 C 273.40625 227.910156 302.84375 239.679688 327.179688 237.796875 C 351.515625 235.898438 362.765625 234.597656 364.691406 227.570312 C 365.324219 225.25 365.710938 223.34375 365.945312 221.070312 C 334.375 231.246094 292.503906 213.144531 277.035156 202.007812 " fill-opacity="1" fill-rule="evenodd"/><path fill="#122949" d="M 236.972656 178.183594 C 233.835938 171.714844 228.3125 163.609375 218.738281 156.398438 C 213.714844 152.617188 206.765625 147.675781 199.1875 142.394531 C 199.1875 142.394531 199.1875 142.394531 199.1875 142.398438 C 198.101562 144.816406 197.148438 147.039062 196.398438 148.953125 C 203.035156 155.558594 213.886719 165.636719 223.699219 171.449219 C 230.472656 175.457031 232.660156 176.21875 236.972656 178.183594 " fill-opacity="1" fill-rule="evenodd"/><g clip-path="url(#b8e575de39)"><path fill="#122949" d="M 304.46875 169.46875 C 303.746094 170.273438 302.445312 169.851562 301.5625 168.519531 C 300.683594 167.1875 300.554688 165.453125 301.273438 164.648438 L 301.578125 164.3125 C 300.160156 162.550781 298.609375 160.457031 296.898438 158.027344 L 296.449219 158.53125 C 295.722656 159.335938 294.429688 158.910156 293.546875 157.582031 C 292.664062 156.246094 292.535156 154.515625 293.253906 153.710938 L 293.398438 153.550781 C 292.992188 154.445312 293.195312 155.875 293.949219 157.011719 C 294.828125 158.339844 296.128906 158.769531 296.851562 157.960938 L 299.234375 155.296875 C 300.867188 157.878906 302.472656 160.21875 303.792969 161.835938 L 301.71875 164.152344 C 301 164.957031 301.128906 166.691406 302.007812 168.019531 C 302.855469 169.300781 304.089844 169.738281 304.824219 169.058594 Z M 365.40625 209.695312 C 364.117188 206.613281 339.582031 199.910156 324.945312 184.28125 C 321.414062 180.515625 317.199219 175.550781 312.8125 169.925781 C 312.773438 169.96875 312.730469 170.011719 312.691406 170.050781 C 310.769531 171.976562 308.445312 171.429688 305.335938 168.5 L 307.625 165.941406 C 308.636719 166.484375 309.601562 166.855469 310.339844 166.890625 C 310.386719 166.894531 310.429688 166.898438 310.476562 166.894531 C 309.953125 166.199219 309.320312 165.375 308.78125 164.652344 L 310.144531 163.128906 C 310.863281 162.324219 310.738281 160.589844 309.855469 159.257812 C 308.96875 157.925781 307.675781 157.503906 306.949219 158.308594 L 305.859375 159.519531 C 304.363281 157.417969 302.785156 155.128906 301.328125 152.957031 L 302.082031 152.117188 C 302.800781 151.3125 302.675781 149.582031 301.789062 148.246094 C 300.910156 146.917969 299.609375 146.492188 298.886719 147.300781 L 298.160156 148.109375 C 296.632812 145.707031 295.164062 143.300781 293.777344 140.914062 L 294.855469 139.707031 C 295.578125 138.898438 295.449219 137.167969 294.570312 135.835938 C 293.683594 134.503906 292.386719 134.078125 291.664062 134.882812 L 290.453125 136.234375 C 288.964844 133.433594 287.589844 130.648438 286.441406 128.007812 L 287.609375 126.703125 C 288.328125 125.894531 288.203125 124.164062 287.316406 122.832031 C 286.4375 121.5 285.140625 121.074219 284.414062 121.878906 L 284.179688 122.144531 C 283.136719 119.042969 282.449219 116.164062 282.222656 113.597656 C 282.222656 113.597656 283.660156 100.664062 285.371094 93.148438 C 285.535156 92.402344 285.757812 89.253906 282.835938 88.945312 C 279.925781 88.636719 272.023438 99.835938 267.011719 103.261719 C 262.289062 106.472656 256.15625 114.46875 257.429688 121.410156 C 261.871094 116.964844 268.652344 111.292969 272.5 113.539062 C 274.367188 114.632812 277.511719 119.335938 281.179688 125.496094 L 279.1875 127.722656 C 278.464844 128.53125 278.59375 130.261719 279.472656 131.59375 C 280.355469 132.925781 281.65625 133.351562 282.378906 132.542969 L 284.148438 130.570312 C 285.585938 133.074219 287.074219 135.699219 288.570312 138.339844 L 286.4375 140.726562 C 285.714844 141.535156 285.84375 143.265625 286.722656 144.597656 C 287.605469 145.929688 288.90625 146.351562 289.625 145.546875 L 291.929688 142.976562 C 293.375 145.511719 294.804688 147.988281 296.1875 150.3125 L 293.65625 153.140625 C 293.636719 153.164062 293.617188 153.191406 293.597656 153.214844 C 292.117188 150.957031 290.628906 148.542969 289.164062 146.0625 C 288.441406 146.84375 287.152344 146.417969 286.28125 145.09375 C 285.398438 143.765625 285.269531 142.03125 285.992188 141.222656 L 286.230469 140.957031 C 284.722656 138.28125 283.265625 135.617188 281.890625 133.082031 C 281.160156 133.828125 279.894531 133.398438 279.027344 132.089844 C 278.148438 130.761719 278.015625 129.027344 278.742188 128.21875 L 279.0625 127.863281 C 276.03125 122.285156 273.617188 118.003906 272.300781 116.785156 C 269.074219 113.800781 255.289062 124.714844 255.289062 124.714844 L 253.089844 126.125 C 249.046875 128.707031 243.242188 131.371094 239.3125 128.710938 C 232.738281 124.246094 228.464844 119.199219 226.636719 105.597656 C 225.363281 96.136719 220.960938 94.902344 220.960938 94.902344 C 220.25 94.414062 216.328125 92.695312 214.777344 98.78125 C 213.226562 104.882812 217.015625 107.1875 209.738281 121 C 207.441406 125.347656 205.050781 130.023438 202.878906 134.488281 C 202.28125 135.710938 202.285156 135.714844 202.882812 134.492188 C 221.382812 145.90625 238.625 157.96875 242.539062 165.34375 C 245.980469 171.820312 248.21875 178.933594 249.613281 184.472656 C 249.613281 184.472656 249.617188 184.476562 249.617188 184.476562 C 256.003906 187.917969 265.128906 193.046875 278.859375 201.144531 C 320.570312 225.683594 357.054688 221.265625 366.089844 219.628906 C 366.480469 215.375 366.21875 211.628906 365.40625 209.695312 " fill-opacity="1" fill-rule="evenodd"/></g><g fill="#122949" fill-opacity="1"><g transform="translate(13.500812, 293.594996)"><g><path d="M 35.21875 -27.5625 C 34.832031 -25.375 33.925781 -23.550781 32.5 -22.09375 C 31.070312 -20.632812 29.375 -19.640625 27.40625 -19.109375 C 29.195312 -18.691406 30.59375 -17.832031 31.59375 -16.53125 C 32.601562 -15.226562 33.109375 -13.675781 33.109375 -11.875 C 33.109375 -11.3125 33.050781 -10.734375 32.9375 -10.140625 C 32.414062 -6.972656 30.90625 -4.488281 28.40625 -2.6875 C 25.90625 -0.894531 22.664062 0 18.6875 0 L 0.265625 0 L 6.859375 -37.21875 L 24.703125 -37.21875 C 28.085938 -37.21875 30.710938 -36.539062 32.578125 -35.1875 C 34.441406 -33.832031 35.375 -31.90625 35.375 -29.40625 C 35.375 -28.8125 35.320312 -28.195312 35.21875 -27.5625 Z M 24.28125 -25.65625 C 24.320312 -25.832031 24.34375 -26.097656 24.34375 -26.453125 C 24.34375 -28.140625 23.234375 -28.984375 21.015625 -28.984375 L 15.78125 -28.984375 L 14.625 -22.390625 L 19.859375 -22.390625 C 22.421875 -22.390625 23.894531 -23.476562 24.28125 -25.65625 Z M 22.65625 -11.609375 C 22.6875 -11.785156 22.703125 -12.035156 22.703125 -12.359375 C 22.703125 -13.234375 22.410156 -13.90625 21.828125 -14.375 C 21.242188 -14.851562 20.390625 -15.09375 19.265625 -15.09375 L 13.3125 -15.09375 L 12.140625 -8.296875 L 18.15625 -8.296875 C 20.726562 -8.296875 22.226562 -9.398438 22.65625 -11.609375 Z M 22.65625 -11.609375 "/></g></g></g><g fill="#122949" fill-opacity="1"><g transform="translate(48.930738, 293.594996)"><g><path d="M 23.171875 -37.21875 C 27.078125 -37.21875 30.050781 -36.347656 32.09375 -34.609375 C 34.132812 -32.867188 35.15625 -30.554688 35.15625 -27.671875 C 35.15625 -26.785156 35.085938 -25.992188 34.953125 -25.296875 C 34.523438 -22.753906 33.445312 -20.523438 31.71875 -18.609375 C 30 -16.691406 27.71875 -15.328125 24.875 -14.515625 L 30.671875 0 L 19.171875 0 L 14.203125 -13.734375 L 13.09375 -13.734375 L 10.671875 0 L 0.265625 0 L 6.859375 -37.21875 Z M 14.359375 -20.796875 L 19.484375 -20.796875 C 22.222656 -20.796875 23.84375 -22.097656 24.34375 -24.703125 C 24.40625 -25.128906 24.4375 -25.429688 24.4375 -25.609375 C 24.4375 -26.554688 24.128906 -27.289062 23.515625 -27.8125 C 22.898438 -28.34375 21.992188 -28.609375 20.796875 -28.609375 L 15.6875 -28.609375 Z M 14.359375 -20.796875 "/></g></g></g><g fill="#122949" fill-opacity="1"><g transform="translate(83.83265, 293.594996)"><g><path d="M 24.921875 -6.078125 L 11.71875 -6.078125 L 8.65625 0 L -2.21875 0 L 17.890625 -37.21875 L 29.828125 -37.21875 L 36.796875 0 L 25.875 0 Z M 23.703125 -13.9375 L 21.859375 -26.03125 L 15.734375 -13.9375 Z M 23.703125 -13.9375 "/></g></g></g><g fill="#122949" fill-opacity="1"><g transform="translate(123.697912, 293.594996)"><g><path d="M 34.796875 0 L 24.390625 0 L 14.359375 -20.796875 L 10.671875 0 L 0.265625 0 L 6.859375 -37.21875 L 17.21875 -37.21875 L 27.296875 -16.15625 L 30.984375 -37.21875 L 41.34375 -37.21875 Z M 34.796875 0 "/></g></g></g><g fill="#122949" fill-opacity="1"><g transform="translate(164.091188, 293.594996)"><g><path d="M 21.59375 -37.21875 C 25.007812 -37.21875 27.96875 -36.609375 30.46875 -35.390625 C 32.96875 -34.179688 34.867188 -32.46875 36.171875 -30.25 C 37.472656 -28.03125 38.125 -25.441406 38.125 -22.484375 C 38.125 -21.148438 38 -19.867188 37.75 -18.640625 C 37.113281 -15.046875 35.75 -11.835938 33.65625 -9.015625 C 31.5625 -6.203125 28.90625 -3.992188 25.6875 -2.390625 C 22.46875 -0.796875 18.90625 0 15 0 L 0.265625 0 L 6.859375 -37.21875 Z M 15.84375 -9.078125 C 18.863281 -9.078125 21.375 -9.910156 23.375 -11.578125 C 25.382812 -13.253906 26.675781 -15.609375 27.25 -18.640625 C 27.382812 -19.335938 27.453125 -20.09375 27.453125 -20.90625 C 27.453125 -23.257812 26.726562 -25.070312 25.28125 -26.34375 C 23.84375 -27.613281 21.820312 -28.25 19.21875 -28.25 L 15.6875 -28.25 L 12.25 -9.078125 Z M 15.84375 -9.078125 "/></g></g></g><g fill="#122949" fill-opacity="1"><g transform="translate(202.900421, 293.594996)"><g><path d="M 34.796875 0 L 24.390625 0 L 14.359375 -20.796875 L 10.671875 0 L 0.265625 0 L 6.859375 -37.21875 L 17.21875 -37.21875 L 27.296875 -16.15625 L 30.984375 -37.21875 L 41.34375 -37.21875 Z M 34.796875 0 "/></g></g></g><g fill="#122949" fill-opacity="1"><g transform="translate(243.293697, 293.594996)"><g><path d="M 24.921875 -6.078125 L 11.71875 -6.078125 L 8.65625 0 L -2.21875 0 L 17.890625 -37.21875 L 29.828125 -37.21875 L 36.796875 0 L 25.875 0 Z M 23.703125 -13.9375 L 21.859375 -26.03125 L 15.734375 -13.9375 Z M 23.703125 -13.9375 "/></g></g></g><g fill="#122949" fill-opacity="1"><g transform="translate(283.15896, 293.594996)"><g><path d="M 50.3125 -37.21875 L 43.71875 0 L 33.421875 0 L 37.0625 -20.59375 L 26.34375 0 L 17.6875 0 L 14.3125 -20.703125 L 10.671875 0 L 0.265625 0 L 6.859375 -37.21875 L 19.375 -37.21875 L 24.5 -13.09375 L 37.859375 -37.21875 Z M 50.3125 -37.21875 "/></g></g></g><g fill="#122949" fill-opacity="1"><g transform="translate(332.52853, 293.594996)"><g><path d="M 15.78125 -29.03125 L 14.734375 -22.859375 L 26.609375 -22.859375 L 25.1875 -15 L 13.3125 -15 L 12.09375 -8.234375 L 25.546875 -8.234375 L 24.125 0 L 0.265625 0 L 6.859375 -37.21875 L 30.671875 -37.21875 L 29.25 -29.03125 Z M 15.78125 -29.03125 "/></g></g></g></svg>