<svg xmlns="http://www.w3.org/2000/svg" xmlns:xlink="http://www.w3.org/1999/xlink" width="500" zoomAndPan="magnify" viewBox="0 0 375 374.999991" height="500" preserveAspectRatio="xMidYMid meet" version="1.0"><defs><g/><clipPath id="2942139cc9"><path d="M 0 32.796875 L 292.40625 32.796875 L 292.40625 240.824219 L 0 240.824219 Z M 0 32.796875 " clip-rule="nonzero"/></clipPath><clipPath id="c1406be4e2"><path d="M 0 32.796875 L 296 32.796875 L 296 240.824219 L 0 240.824219 Z M 0 32.796875 " clip-rule="nonzero"/></clipPath><clipPath id="0bfc3eefe7"><path d="M 192.660156 57.242188 L 375 57.242188 L 375 218.746094 L 192.660156 218.746094 Z M 192.660156 57.242188 " clip-rule="nonzero"/></clipPath></defs><g clip-path="url(#2942139cc9)"><path fill="#bf6262" d="M 41.835938 85.867188 C 41.835938 85.867188 75.109375 62.445312 93.582031 85.886719 C 93.582031 85.886719 79.261719 174.46875 -43.683594 157.121094 C -43.683594 157.121094 3.523438 201.179688 49.359375 200.246094 C 49.359375 200.246094 47.09375 208.445312 24.710938 213.089844 C 24.710938 213.089844 65.78125 239.625 97.9375 224.625 C 97.9375 224.625 87.332031 235.335938 62.277344 240.695312 C 62.277344 240.695312 271.03125 240.59375 292.246094 240.59375 C 274.074219 237.890625 133.640625 210.1875 133.640625 210.1875 C 147.136719 202.660156 152.039062 194.746094 152.039062 194.746094 C 135.5 208.957031 109.96875 201.546875 109.96875 201.546875 C 122.039062 194.898438 122.515625 189.902344 122.515625 189.902344 C 96.96875 198.722656 66.320312 182.617188 66.320312 182.617188 C 136.757812 170.074219 136.234375 117.9375 136.234375 117.9375 C 123.644531 108.167969 107.289062 127.289062 107.289062 127.289062 C 144.371094 57.476562 173.164062 80.328125 184 94.167969 C 187.914062 99.171875 190.964844 104.347656 193.355469 109.546875 C 191.007812 97.492188 187.191406 84.824219 181.402344 71.800781 C 166.535156 38.378906 102.835938 -1.777344 41.835938 85.867188 " fill-opacity="1" fill-rule="nonzero"/></g><g clip-path="url(#c1406be4e2)"><path stroke-linecap="butt" transform="matrix(0.0260433, 0, 0, -0.0260072, -44.072321, 240.825116)" fill="none" stroke-linejoin="miter" d="M 3298.673384 5958.263118 C 3298.673384 5958.263118 4576.294478 6858.853976 5285.600671 5957.512125 C 5285.600671 5957.512125 4735.734631 2551.458274 14.926189 3218.490296 C 14.926189 3218.490296 1827.56424 1524.400188 3587.555542 1560.297655 C 3587.555542 1560.297655 3500.560915 1245.030775 2641.113995 1066.444629 C 2641.113995 1066.444629 4218.116599 46.14548 5452.840342 622.908138 C 5452.840342 622.908138 5045.615492 211.063552 4083.574908 4.991061 C 4083.574908 4.991061 12099.229858 8.896225 12913.829548 8.896225 C 12216.072642 112.833662 6823.755674 1178.042196 6823.755674 1178.042196 C 7341.973668 1467.474915 7530.212043 1771.777296 7530.212043 1771.777296 C 6895.151264 1225.354757 5914.81181 1510.281518 5914.81181 1510.281518 C 6378.283186 1765.91955 6396.582056 1958.023571 6396.582056 1958.023571 C 5415.642639 1618.875112 4238.81532 2238.143976 4238.81532 2238.143976 C 6943.448281 2720.431709 6923.349523 4725.13254 6923.349523 4725.13254 C 6439.929379 5100.779261 5811.918165 4365.557071 5811.918165 4365.557071 C 7235.780227 7049.906607 8341.361946 6171.244746 8757.436249 5639.091075 C 8907.726967 5446.686657 9024.869732 5247.6735 9116.664063 5047.759152 C 9026.51963 5511.272059 8879.97868 5998.366147 8657.692409 6499.128308 C 8086.827666 7784.227605 5640.928725 9328.269303 3298.673384 5958.263118 Z M 3298.673384 5958.263118 " stroke="#ec1d27" stroke-width="10" stroke-opacity="1" stroke-miterlimit="10"/></g><path fill="#122949" d="M 284.054688 195.355469 C 273.726562 187.9375 262.910156 182.535156 251.332031 177.289062 C 247.996094 175.78125 244.589844 174.289062 241.121094 172.765625 C 239.816406 172.195312 238.503906 171.617188 237.179688 171.035156 C 231.148438 168.363281 224.929688 165.574219 218.5 162.425781 C 201.617188 154.195312 189.414062 143.785156 183.394531 138.046875 C 183.394531 138.125 183.394531 138.207031 183.410156 138.265625 C 183.410156 138.265625 173.480469 156.628906 171.617188 164.839844 C 171.308594 166.128906 171.230469 167.175781 171.402344 167.847656 C 172.714844 172.796875 192.5 183.601562 195.628906 185.640625 C 205.085938 191.8125 230.078125 190.46875 268.042969 218.410156 C 279.621094 226.9375 315.601562 241.285156 345.34375 238.988281 C 375.089844 236.675781 388.835938 235.089844 391.191406 226.523438 C 391.964844 223.691406 392.4375 221.371094 392.726562 218.597656 C 354.136719 231.007812 302.964844 208.929688 284.054688 195.355469 " fill-opacity="1" fill-rule="evenodd"/><path fill="#122949" d="M 235.09375 166.304688 C 231.257812 158.421875 224.507812 148.539062 212.804688 139.746094 C 206.664062 135.132812 198.171875 129.105469 188.914062 122.667969 C 188.910156 122.667969 188.910156 122.667969 188.910156 122.671875 C 187.582031 125.621094 186.417969 128.332031 185.503906 130.667969 C 193.613281 138.71875 206.875 151.007812 218.867188 158.09375 C 227.148438 162.980469 229.824219 163.910156 235.09375 166.304688 " fill-opacity="1" fill-rule="evenodd"/><g clip-path="url(#0bfc3eefe7)"><path fill="#122949" d="M 317.585938 155.679688 C 316.707031 156.664062 315.117188 156.144531 314.035156 154.523438 C 312.957031 152.898438 312.804688 150.785156 313.683594 149.800781 L 314.054688 149.390625 C 312.324219 147.246094 310.425781 144.691406 308.332031 141.730469 L 307.785156 142.339844 C 306.898438 143.324219 305.316406 142.804688 304.234375 141.183594 C 303.15625 139.558594 303 137.449219 303.878906 136.464844 L 304.054688 136.269531 C 303.5625 137.363281 303.808594 139.101562 304.726562 140.488281 C 305.804688 142.113281 307.394531 142.632812 308.277344 141.648438 L 311.1875 138.402344 C 313.1875 141.546875 315.148438 144.402344 316.757812 146.375 L 314.226562 149.195312 C 313.34375 150.179688 313.503906 152.292969 314.578125 153.914062 C 315.613281 155.472656 317.121094 156.007812 318.019531 155.179688 Z M 392.066406 204.726562 C 390.488281 200.96875 360.503906 192.796875 342.613281 173.738281 C 338.300781 169.148438 333.144531 163.097656 327.78125 156.238281 C 327.734375 156.289062 327.6875 156.339844 327.636719 156.386719 C 325.285156 158.738281 322.449219 158.070312 318.648438 154.496094 L 321.441406 151.378906 C 322.679688 152.042969 323.859375 152.492188 324.761719 152.535156 C 324.820312 152.539062 324.871094 152.542969 324.929688 152.539062 C 324.289062 151.695312 323.519531 150.691406 322.859375 149.804688 L 324.519531 147.949219 C 325.402344 146.964844 325.25 144.855469 324.171875 143.230469 C 323.089844 141.605469 321.503906 141.089844 320.617188 142.070312 L 319.289062 143.550781 C 317.457031 140.984375 315.527344 138.195312 313.746094 135.546875 L 314.667969 134.523438 C 315.550781 133.539062 315.394531 131.429688 314.3125 129.804688 C 313.234375 128.183594 311.648438 127.664062 310.761719 128.648438 L 309.878906 129.636719 C 308.011719 126.707031 306.210938 123.773438 304.519531 120.859375 L 305.835938 119.390625 C 306.71875 118.40625 306.566406 116.292969 305.488281 114.667969 C 304.40625 113.046875 302.816406 112.527344 301.9375 113.507812 L 300.457031 115.15625 C 298.636719 111.742188 296.957031 108.347656 295.550781 105.125 L 296.980469 103.535156 C 297.859375 102.550781 297.703125 100.4375 296.625 98.816406 C 295.550781 97.191406 293.960938 96.671875 293.078125 97.65625 L 292.789062 97.976562 C 291.511719 94.195312 290.675781 90.683594 290.398438 87.558594 C 290.398438 87.558594 292.15625 71.785156 294.246094 62.621094 C 294.445312 61.714844 294.71875 57.875 291.144531 57.5 C 287.589844 57.121094 277.929688 70.777344 271.804688 74.953125 C 266.035156 78.867188 258.539062 88.617188 260.097656 97.082031 C 265.523438 91.660156 273.808594 84.746094 278.511719 87.484375 C 280.796875 88.820312 284.636719 94.554688 289.121094 102.0625 L 286.6875 104.777344 C 285.800781 105.765625 285.960938 107.875 287.039062 109.496094 C 288.117188 111.121094 289.703125 111.640625 290.585938 110.65625 L 292.75 108.25 C 294.507812 111.304688 296.328125 114.507812 298.152344 117.726562 L 295.546875 120.632812 C 294.664062 121.617188 294.820312 123.730469 295.898438 125.351562 C 296.976562 126.976562 298.5625 127.496094 299.445312 126.511719 L 302.257812 123.378906 C 304.027344 126.46875 305.777344 129.488281 307.464844 132.324219 L 304.375 135.769531 C 304.347656 135.796875 304.324219 135.832031 304.300781 135.859375 C 302.492188 133.109375 300.671875 130.164062 298.882812 127.136719 C 297.996094 128.089844 296.421875 127.574219 295.355469 125.960938 C 294.277344 124.335938 294.117188 122.226562 295.003906 121.242188 L 295.292969 120.914062 C 293.453125 117.65625 291.671875 114.40625 289.992188 111.3125 C 289.101562 112.222656 287.554688 111.699219 286.496094 110.105469 C 285.417969 108.480469 285.257812 106.371094 286.140625 105.386719 L 286.535156 104.949219 C 282.828125 98.148438 279.878906 92.929688 278.269531 91.445312 C 274.324219 87.804688 257.476562 101.109375 257.476562 101.109375 L 254.789062 102.832031 C 249.851562 105.980469 242.757812 109.230469 237.949219 105.980469 C 229.917969 100.539062 224.691406 94.382812 222.460938 77.800781 C 220.902344 66.265625 215.523438 64.761719 215.523438 64.761719 C 214.65625 64.167969 209.859375 62.070312 207.964844 69.492188 C 206.070312 76.929688 210.699219 79.742188 201.808594 96.582031 C 198.996094 101.882812 196.078125 107.585938 193.421875 113.027344 C 192.691406 114.519531 192.695312 114.523438 193.425781 113.03125 C 216.035156 126.949219 237.109375 141.660156 241.894531 150.652344 C 246.105469 158.546875 248.839844 167.21875 250.542969 173.972656 C 250.542969 173.972656 250.546875 173.976562 250.546875 173.980469 C 258.351562 178.175781 269.503906 184.425781 286.289062 194.300781 C 337.265625 224.21875 381.859375 218.835938 392.902344 216.839844 C 393.378906 211.652344 393.058594 207.082031 392.066406 204.726562 " fill-opacity="1" fill-rule="evenodd"/></g><g fill="#122949" fill-opacity="1"><g transform="translate(-9.04807, 323.473898)"><g><path d="M 32.875 -52.796875 C 38.414062 -52.796875 42.632812 -51.5625 45.53125 -49.09375 C 48.425781 -46.625 49.875 -43.34375 49.875 -39.25 C 49.875 -38 49.773438 -36.875 49.578125 -35.875 C 48.972656 -32.28125 47.445312 -29.117188 45 -26.390625 C 42.5625 -23.671875 39.320312 -21.738281 35.28125 -20.59375 L 43.515625 0 L 27.1875 0 L 20.140625 -19.46875 L 18.578125 -19.46875 L 15.125 0 L 0.375 0 L 9.734375 -52.796875 Z M 20.375 -29.5 L 27.640625 -29.5 C 31.523438 -29.5 33.820312 -31.347656 34.53125 -35.046875 C 34.625 -35.648438 34.671875 -36.078125 34.671875 -36.328125 C 34.671875 -37.671875 34.234375 -38.71875 33.359375 -39.46875 C 32.484375 -40.21875 31.195312 -40.59375 29.5 -40.59375 L 22.25 -40.59375 Z M 20.375 -29.5 "/></g></g></g><g fill="#122949" fill-opacity="1"><g transform="translate(40.457165, 323.473898)"><g><path d="M 35.34375 -8.609375 L 16.625 -8.609375 L 12.28125 0 L -3.140625 0 L 25.390625 -52.796875 L 42.3125 -52.796875 L 52.203125 0 L 36.703125 0 Z M 33.625 -19.765625 L 31 -36.921875 L 22.3125 -19.765625 Z M 33.625 -19.765625 "/></g></g></g><g fill="#122949" fill-opacity="1"><g transform="translate(97.002468, 323.473898)"><g><path d="M 49.359375 0 L 34.59375 0 L 20.375 -29.5 L 15.125 0 L 0.375 0 L 9.734375 -52.796875 L 24.421875 -52.796875 L 38.71875 -22.921875 L 43.953125 -52.796875 L 58.640625 -52.796875 Z M 49.359375 0 "/></g></g></g><g fill="#122949" fill-opacity="1"><g transform="translate(154.296712, 323.473898)"><g><path d="M 30.625 -52.796875 C 35.46875 -52.796875 39.660156 -51.929688 43.203125 -50.203125 C 46.753906 -48.484375 49.453125 -46.050781 51.296875 -42.90625 C 53.148438 -39.757812 54.078125 -36.09375 54.078125 -31.90625 C 54.078125 -30.007812 53.898438 -28.1875 53.546875 -26.4375 C 52.648438 -21.34375 50.710938 -16.796875 47.734375 -12.796875 C 44.765625 -8.804688 40.992188 -5.675781 36.421875 -3.40625 C 31.859375 -1.132812 26.804688 0 21.265625 0 L 0.375 0 L 9.734375 -52.796875 Z M 22.46875 -12.875 C 26.757812 -12.875 30.328125 -14.0625 33.171875 -16.4375 C 36.015625 -18.8125 37.835938 -22.144531 38.640625 -26.4375 C 38.835938 -27.4375 38.9375 -28.507812 38.9375 -29.65625 C 38.9375 -33 37.910156 -35.566406 35.859375 -37.359375 C 33.816406 -39.160156 30.953125 -40.0625 27.265625 -40.0625 L 22.25 -40.0625 L 17.375 -12.875 Z M 22.46875 -12.875 "/></g></g></g><g fill="#122949" fill-opacity="1"><g transform="translate(209.344132, 323.473898)"><g><path d="M 49.359375 0 L 34.59375 0 L 20.375 -29.5 L 15.125 0 L 0.375 0 L 9.734375 -52.796875 L 24.421875 -52.796875 L 38.71875 -22.921875 L 43.953125 -52.796875 L 58.640625 -52.796875 Z M 49.359375 0 "/></g></g></g><g fill="#122949" fill-opacity="1"><g transform="translate(266.638375, 323.473898)"><g><path d="M 35.34375 -8.609375 L 16.625 -8.609375 L 12.28125 0 L -3.140625 0 L 25.390625 -52.796875 L 42.3125 -52.796875 L 52.203125 0 L 36.703125 0 Z M 33.625 -19.765625 L 31 -36.921875 L 22.3125 -19.765625 Z M 33.625 -19.765625 "/></g></g></g><g fill="#122949" fill-opacity="1"><g transform="translate(323.183679, 323.473898)"><g><path d="M 71.375 -52.796875 L 62.015625 0 L 47.40625 0 L 52.578125 -29.203125 L 37.375 0 L 25.09375 0 L 20.296875 -29.359375 L 15.125 0 L 0.375 0 L 9.734375 -52.796875 L 27.484375 -52.796875 L 34.75 -18.578125 L 53.703125 -52.796875 Z M 71.375 -52.796875 "/></g></g></g></svg>