<svg xmlns="http://www.w3.org/2000/svg" xmlns:xlink="http://www.w3.org/1999/xlink" width="500" zoomAndPan="magnify" viewBox="0 0 375 374.999991" height="500" preserveAspectRatio="xMidYMid meet" version="1.0"><defs><g/><clipPath id="783364b3c7"><path d="M 0 67.230469 L 272.601562 67.230469 L 272.601562 237.84375 L 0 237.84375 Z M 0 67.230469 " clip-rule="nonzero"/></clipPath><clipPath id="0a334130e4"><path d="M 0 67.230469 L 275.585938 67.230469 L 275.585938 237.84375 L 0 237.84375 Z M 0 67.230469 " clip-rule="nonzero"/></clipPath><clipPath id="e8e8059e87"><path d="M 191 87.277344 L 354.996094 87.277344 L 354.996094 219.734375 L 191 219.734375 Z M 191 87.277344 " clip-rule="nonzero"/></clipPath></defs><g clip-path="url(#783364b3c7)"><path fill="#bf6262" d="M 67.601562 110.753906 C 67.601562 110.753906 94.824219 91.546875 109.933594 110.769531 C 109.933594 110.769531 98.222656 183.421875 -2.363281 169.195312 C -2.363281 169.195312 36.257812 205.328125 73.757812 204.5625 C 73.757812 204.5625 71.902344 211.285156 53.589844 215.097656 C 53.589844 215.097656 87.191406 236.859375 113.5 224.558594 C 113.5 224.558594 104.820312 233.34375 84.324219 237.734375 C 84.324219 237.734375 255.113281 237.652344 272.46875 237.652344 C 257.601562 235.433594 142.710938 212.714844 142.710938 212.714844 C 153.75 206.542969 157.761719 200.050781 157.761719 200.050781 C 144.230469 211.707031 123.34375 205.628906 123.34375 205.628906 C 133.21875 200.175781 133.609375 196.082031 133.609375 196.082031 C 112.707031 203.3125 87.632812 190.105469 87.632812 190.105469 C 145.261719 179.816406 144.832031 137.058594 144.832031 137.058594 C 134.53125 129.046875 121.152344 144.726562 121.152344 144.726562 C 151.488281 87.472656 175.046875 106.210938 183.910156 117.566406 C 187.113281 121.667969 189.609375 125.914062 191.566406 130.175781 C 189.644531 120.289062 186.523438 109.902344 181.785156 99.21875 C 169.621094 71.808594 117.507812 38.875 67.601562 110.753906 " fill-opacity="1" fill-rule="nonzero"/></g><g clip-path="url(#0a334130e4)"><path stroke-linecap="butt" transform="matrix(0.0213068, 0, 0, -0.0213297, -2.682846, 237.843061)" fill="none" stroke-linejoin="miter" d="M 3298.680226 5958.32621 C 3298.680226 5958.32621 4576.329707 6858.810266 5285.462752 5957.593663 C 5285.462752 5957.593663 4735.829642 2551.430767 14.998227 3218.415296 C 14.998227 3218.415296 1827.614157 1524.399124 3587.613442 1560.293953 C 3587.613442 1560.293953 3500.530144 1245.115377 2641.063827 1066.373779 C 2641.063827 1066.373779 4218.096519 46.118201 5452.846017 622.816247 C 5452.846017 622.816247 5045.479516 210.941396 4083.529907 5.095539 C 4083.529907 5.095539 12099.22665 8.941413 12913.776319 8.941413 C 12216.009936 112.963163 6823.812127 1178.087278 6823.812127 1178.087278 C 7341.911916 1467.443553 7530.195173 1771.817054 7530.195173 1771.817054 C 6895.128765 1225.336593 5914.84583 1510.297584 5914.84583 1510.297584 C 6378.312308 1765.956674 6396.645634 1957.884127 6396.645634 1957.884127 C 5415.629366 1618.897756 4238.813178 2238.083559 4238.813178 2238.083559 C 6943.528745 2720.46611 6923.362087 4725.082437 6923.362087 4725.082437 C 6439.912283 5100.696185 5811.995872 4365.584735 5811.995872 4365.584735 C 7235.76196 7049.822036 8341.444844 6171.314406 8757.428008 5638.935485 C 8907.76128 5446.641758 9024.911232 5247.571965 9116.761195 5047.769626 C 9026.561232 5511.289078 8880.077958 5998.250051 8657.694715 6499.129427 C 8086.794947 7784.200939 5640.945941 9328.228003 3298.680226 5958.32621 Z M 3298.680226 5958.32621 " stroke="#ec1d27" stroke-width="10" stroke-opacity="1" stroke-miterlimit="10"/></g><path fill="#122949" d="M 265.769531 200.550781 C 257.320312 194.464844 248.46875 190.035156 238.996094 185.734375 C 236.265625 184.5 233.480469 183.273438 230.640625 182.023438 C 229.574219 181.554688 228.503906 181.082031 227.417969 180.605469 C 222.484375 178.414062 217.398438 176.125 212.136719 173.546875 C 198.324219 166.792969 188.339844 158.257812 183.414062 153.550781 C 183.414062 153.613281 183.414062 153.679688 183.425781 153.730469 C 183.425781 153.730469 175.304688 168.789062 173.777344 175.527344 C 173.527344 176.582031 173.464844 177.441406 173.601562 177.992188 C 174.679688 182.050781 190.863281 190.910156 193.425781 192.582031 C 201.164062 197.648438 221.609375 196.542969 252.667969 219.457031 C 262.140625 226.453125 291.578125 238.21875 315.910156 236.335938 C 340.246094 234.441406 351.492188 233.140625 353.421875 226.113281 C 354.054688 223.792969 354.441406 221.886719 354.675781 219.613281 C 323.105469 229.789062 281.238281 211.683594 265.769531 200.550781 " fill-opacity="1" fill-rule="evenodd"/><path fill="#122949" d="M 225.710938 176.726562 C 225.710938 176.726562 225.710938 176.726562 225.710938 176.722656 C 222.574219 170.257812 217.050781 162.152344 207.476562 154.941406 C 202.453125 151.160156 195.503906 146.214844 187.929688 140.9375 C 187.929688 140.9375 187.925781 140.9375 187.925781 140.941406 C 186.839844 143.359375 185.890625 145.582031 185.140625 147.496094 C 191.777344 154.101562 202.625 164.179688 212.4375 169.992188 C 219.210938 174 221.398438 174.761719 225.710938 176.726562 " fill-opacity="1" fill-rule="evenodd"/><g clip-path="url(#e8e8059e87)"><path fill="#122949" d="M 293.199219 168.011719 C 292.480469 168.816406 291.179688 168.394531 290.296875 167.0625 C 289.414062 165.730469 289.289062 163.996094 290.007812 163.191406 L 290.3125 162.855469 C 288.894531 161.09375 287.34375 159 285.628906 156.570312 L 285.183594 157.070312 C 284.457031 157.878906 283.160156 157.453125 282.28125 156.121094 C 281.398438 154.789062 281.269531 153.058594 281.988281 152.253906 L 282.128906 152.09375 C 281.726562 152.988281 281.929688 154.414062 282.679688 155.554688 C 283.5625 156.882812 284.863281 157.308594 285.585938 156.503906 L 287.96875 153.839844 C 289.601562 156.417969 291.207031 158.761719 292.523438 160.378906 L 290.453125 162.695312 C 289.730469 163.5 289.859375 165.234375 290.742188 166.5625 C 291.585938 167.84375 292.820312 168.28125 293.554688 167.601562 Z M 354.136719 208.238281 C 352.84375 205.15625 328.3125 198.453125 313.675781 182.824219 C 310.148438 179.054688 305.929688 174.09375 301.542969 168.46875 C 301.503906 168.511719 301.464844 168.550781 301.421875 168.59375 C 299.5 170.519531 297.179688 169.972656 294.070312 167.042969 L 296.355469 164.484375 C 297.371094 165.027344 298.332031 165.398438 299.070312 165.433594 C 299.121094 165.4375 299.164062 165.441406 299.210938 165.4375 C 298.683594 164.742188 298.054688 163.917969 297.515625 163.195312 L 298.875 161.671875 C 299.597656 160.867188 299.46875 159.132812 298.589844 157.800781 C 297.703125 156.46875 296.40625 156.042969 295.683594 156.847656 L 294.59375 158.0625 C 293.097656 155.960938 291.519531 153.671875 290.058594 151.5 L 290.8125 150.660156 C 291.535156 149.851562 291.40625 148.121094 290.523438 146.789062 C 289.640625 145.460938 288.34375 145.035156 287.617188 145.839844 L 286.894531 146.652344 C 285.367188 144.25 283.894531 141.84375 282.511719 139.453125 L 283.589844 138.25 C 284.3125 137.441406 284.183594 135.710938 283.300781 134.375 C 282.417969 133.046875 281.117188 132.621094 280.398438 133.425781 L 279.1875 134.777344 C 277.699219 131.976562 276.324219 129.191406 275.175781 126.550781 L 276.339844 125.246094 C 277.0625 124.4375 276.9375 122.707031 276.050781 121.375 C 275.171875 120.042969 273.875 119.617188 273.148438 120.421875 L 272.914062 120.6875 C 271.871094 117.585938 271.183594 114.707031 270.957031 112.140625 C 270.957031 112.140625 272.394531 99.207031 274.105469 91.691406 C 274.269531 90.945312 274.492188 87.796875 271.570312 87.488281 C 268.660156 87.179688 260.757812 98.378906 255.746094 101.804688 C 251.027344 105.015625 244.890625 113.011719 246.167969 119.953125 C 250.609375 115.503906 257.386719 109.835938 261.234375 112.082031 C 263.101562 113.175781 266.246094 117.878906 269.914062 124.039062 L 267.921875 126.265625 C 267.199219 127.074219 267.328125 128.804688 268.210938 130.136719 C 269.089844 131.46875 270.390625 131.894531 271.113281 131.085938 L 272.882812 129.113281 C 274.320312 131.617188 275.808594 134.242188 277.304688 136.882812 L 275.167969 139.269531 C 274.449219 140.078125 274.578125 141.808594 275.457031 143.140625 C 276.339844 144.472656 277.636719 144.894531 278.359375 144.089844 L 280.664062 141.519531 C 282.109375 144.054688 283.539062 146.53125 284.921875 148.855469 L 282.390625 151.683594 C 282.371094 151.707031 282.351562 151.730469 282.332031 151.757812 C 280.851562 149.5 279.363281 147.082031 277.898438 144.601562 C 277.175781 145.386719 275.886719 144.960938 275.015625 143.636719 C 274.132812 142.304688 274.003906 140.574219 274.722656 139.765625 L 274.964844 139.5 C 273.457031 136.824219 272 134.160156 270.625 131.625 C 269.894531 132.371094 268.628906 131.941406 267.765625 130.632812 C 266.882812 129.300781 266.753906 127.570312 267.476562 126.761719 L 267.796875 126.40625 C 264.765625 120.828125 262.351562 116.546875 261.035156 115.328125 C 257.808594 112.34375 244.023438 123.257812 244.023438 123.257812 L 241.824219 124.667969 L 241.828125 124.667969 C 237.785156 127.25 231.980469 129.914062 228.046875 127.253906 C 221.476562 122.789062 217.203125 117.742188 215.375 104.140625 C 214.101562 94.679688 209.703125 93.445312 209.703125 93.445312 C 208.992188 92.957031 205.066406 91.238281 203.515625 97.324219 C 201.964844 103.425781 205.753906 105.730469 198.480469 119.542969 C 196.179688 123.890625 193.792969 128.566406 191.617188 133.03125 C 191.019531 134.253906 191.023438 134.257812 191.621094 133.035156 C 210.121094 144.449219 227.363281 156.511719 231.277344 163.886719 C 234.71875 170.363281 236.957031 177.472656 238.351562 183.011719 C 238.351562 183.015625 238.351562 183.019531 238.351562 183.019531 C 244.742188 186.460938 253.863281 191.589844 267.59375 199.6875 C 309.304688 224.226562 345.785156 219.808594 354.820312 218.171875 C 355.207031 213.917969 354.945312 210.167969 354.136719 208.238281 " fill-opacity="1" fill-rule="evenodd"/></g><g fill="#122949" fill-opacity="1"><g transform="translate(35.834663, 301.187007)"><g><path d="M 40.828125 -31.953125 C 40.378906 -29.421875 39.328125 -27.304688 37.671875 -25.609375 C 36.015625 -23.921875 34.046875 -22.769531 31.765625 -22.15625 C 33.847656 -21.664062 35.46875 -20.664062 36.625 -19.15625 C 37.789062 -17.644531 38.375 -15.847656 38.375 -13.765625 C 38.375 -13.117188 38.3125 -12.445312 38.1875 -11.75 C 37.570312 -8.082031 35.816406 -5.207031 32.921875 -3.125 C 30.023438 -1.039062 26.273438 0 21.671875 0 L 0.3125 0 L 7.953125 -43.140625 L 28.640625 -43.140625 C 32.554688 -43.140625 35.59375 -42.351562 37.75 -40.78125 C 39.914062 -39.21875 41 -36.988281 41 -34.09375 C 41 -33.394531 40.941406 -32.679688 40.828125 -31.953125 Z M 28.15625 -29.75 C 28.195312 -29.945312 28.21875 -30.25 28.21875 -30.65625 C 28.21875 -32.613281 26.929688 -33.59375 24.359375 -33.59375 L 18.296875 -33.59375 L 16.953125 -25.953125 L 23.015625 -25.953125 C 25.992188 -25.953125 27.707031 -27.21875 28.15625 -29.75 Z M 26.25 -13.46875 C 26.289062 -13.664062 26.3125 -13.953125 26.3125 -14.328125 C 26.3125 -15.347656 25.972656 -16.128906 25.296875 -16.671875 C 24.628906 -17.222656 23.644531 -17.5 22.34375 -17.5 L 15.421875 -17.5 L 14.078125 -9.609375 L 21.046875 -9.609375 C 24.023438 -9.609375 25.757812 -10.894531 26.25 -13.46875 Z M 26.25 -13.46875 "/></g></g></g><g fill="#122949" fill-opacity="1"><g transform="translate(76.906084, 301.187007)"><g><path d="M 21.171875 0.421875 C 17.546875 0.421875 14.34375 -0.328125 11.5625 -1.828125 C 8.789062 -3.335938 6.648438 -5.457031 5.140625 -8.1875 C 3.628906 -10.925781 2.875 -14.070312 2.875 -17.625 C 2.875 -22.726562 3.941406 -27.269531 6.078125 -31.25 C 8.222656 -35.226562 11.222656 -38.316406 15.078125 -40.515625 C 18.941406 -42.722656 23.363281 -43.828125 28.34375 -43.828125 C 32.050781 -43.828125 35.300781 -43.082031 38.09375 -41.59375 C 40.894531 -40.101562 43.050781 -38 44.5625 -35.28125 C 46.070312 -32.570312 46.828125 -29.441406 46.828125 -25.890625 C 46.828125 -20.828125 45.742188 -16.296875 43.578125 -12.296875 C 41.410156 -8.296875 38.390625 -5.175781 34.515625 -2.9375 C 30.640625 -0.695312 26.191406 0.421875 21.171875 0.421875 Z M 23.015625 -10.703125 C 25.421875 -10.703125 27.53125 -11.332031 29.34375 -12.59375 C 31.164062 -13.863281 32.554688 -15.550781 33.515625 -17.65625 C 34.472656 -19.757812 34.953125 -22.035156 34.953125 -24.484375 C 34.953125 -27.085938 34.242188 -29.113281 32.828125 -30.5625 C 31.421875 -32.019531 29.414062 -32.75 26.8125 -32.75 C 24.40625 -32.75 22.28125 -32.125 20.4375 -30.875 C 18.601562 -29.632812 17.195312 -27.972656 16.21875 -25.890625 C 15.238281 -23.804688 14.75 -21.519531 14.75 -19.03125 C 14.75 -16.457031 15.460938 -14.425781 16.890625 -12.9375 C 18.316406 -11.445312 20.359375 -10.703125 23.015625 -10.703125 Z M 23.015625 -10.703125 "/></g></g></g><g fill="#122949" fill-opacity="1"><g transform="translate(125.077789, 301.187007)"><g><path d="M 26.875 -43.140625 C 31.394531 -43.140625 34.835938 -42.128906 37.203125 -40.109375 C 39.578125 -38.097656 40.765625 -35.421875 40.765625 -32.078125 C 40.765625 -31.054688 40.679688 -30.132812 40.515625 -29.3125 C 40.023438 -26.375 38.78125 -23.789062 36.78125 -21.5625 C 34.78125 -19.34375 32.128906 -17.765625 28.828125 -16.828125 L 35.5625 0 L 22.21875 0 L 16.46875 -15.90625 L 15.171875 -15.90625 L 12.359375 0 L 0.3125 0 L 7.953125 -43.140625 Z M 16.640625 -24.109375 L 22.578125 -24.109375 C 25.765625 -24.109375 27.644531 -25.617188 28.21875 -28.640625 C 28.300781 -29.128906 28.34375 -29.476562 28.34375 -29.6875 C 28.34375 -30.789062 27.984375 -31.644531 27.265625 -32.25 C 26.546875 -32.863281 25.492188 -33.171875 24.109375 -33.171875 L 18.171875 -33.171875 Z M 16.640625 -24.109375 "/></g></g></g><g fill="#122949" fill-opacity="1"><g transform="translate(165.537119, 301.187007)"><g><path d="M 2.6875 -21.671875 C 3.425781 -25.910156 4.976562 -29.691406 7.34375 -33.015625 C 9.707031 -36.335938 12.6875 -38.925781 16.28125 -40.78125 C 19.875 -42.644531 23.789062 -43.578125 28.03125 -43.578125 C 31.582031 -43.578125 34.679688 -42.921875 37.328125 -41.609375 C 39.984375 -40.304688 42.046875 -38.453125 43.515625 -36.046875 C 44.984375 -33.640625 45.78125 -30.804688 45.90625 -27.546875 L 32.984375 -27.546875 C 32.492188 -29.128906 31.632812 -30.347656 30.40625 -31.203125 C 29.1875 -32.066406 27.679688 -32.5 25.890625 -32.5 C 23.117188 -32.5 20.734375 -31.519531 18.734375 -29.5625 C 16.734375 -27.601562 15.445312 -24.972656 14.875 -21.671875 C 14.707031 -20.804688 14.625 -19.882812 14.625 -18.90625 C 14.625 -16.382812 15.285156 -14.394531 16.609375 -12.9375 C 17.941406 -11.488281 19.769531 -10.765625 22.09375 -10.765625 C 23.882812 -10.765625 25.546875 -11.191406 27.078125 -12.046875 C 28.609375 -12.910156 29.882812 -14.140625 30.90625 -15.734375 L 43.875 -15.734375 C 41.914062 -10.796875 38.835938 -6.882812 34.640625 -4 C 30.441406 -1.125 25.648438 0.3125 20.265625 0.3125 C 16.546875 0.3125 13.328125 -0.398438 10.609375 -1.828125 C 7.898438 -3.265625 5.832031 -5.285156 4.40625 -7.890625 C 2.976562 -10.503906 2.265625 -13.523438 2.265625 -16.953125 C 2.265625 -18.546875 2.40625 -20.117188 2.6875 -21.671875 Z M 2.6875 -21.671875 "/></g></g></g><g fill="#122949" fill-opacity="1"><g transform="translate(211.933745, 301.187007)"><g><path d="M 18.296875 -33.65625 L 17.078125 -26.5 L 30.84375 -26.5 L 29.1875 -17.375 L 15.421875 -17.375 L 14.015625 -9.546875 L 29.625 -9.546875 L 27.96875 0 L 0.3125 0 L 7.953125 -43.140625 L 35.5625 -43.140625 L 33.90625 -33.65625 Z M 18.296875 -33.65625 "/></g></g></g><g fill="#122949" fill-opacity="1"><g transform="translate(245.476424, 301.187007)"><g><path d="M 14.015625 -9.125 L 27.421875 -9.125 L 25.765625 0 L 0.3125 0 L 7.953125 -43.140625 L 19.953125 -43.140625 Z M 14.015625 -9.125 "/></g></g></g><g fill="#122949" fill-opacity="1"><g transform="translate(275.530168, 301.187007)"><g><path d="M 14.015625 -9.125 L 27.421875 -9.125 L 25.765625 0 L 0.3125 0 L 7.953125 -43.140625 L 19.953125 -43.140625 Z M 14.015625 -9.125 "/></g></g></g><g fill="#122949" fill-opacity="1"><g transform="translate(305.583912, 301.187007)"><g><path d="M 18.296875 -33.65625 L 17.078125 -26.5 L 30.84375 -26.5 L 29.1875 -17.375 L 15.421875 -17.375 L 14.015625 -9.546875 L 29.625 -9.546875 L 27.96875 0 L 0.3125 0 L 7.953125 -43.140625 L 35.5625 -43.140625 L 33.90625 -33.65625 Z M 18.296875 -33.65625 "/></g></g></g></svg>